<svg width="1000" height="1000" viewBox="0 0 1000 1000" xmlns="http://www.w3.org/2000/svg"><defs/><path id="text" fill="#155dfc" transform="matrix(7.6432564640111815 0 0 7.643256464011181 -46.9601677148847 519.496855345912)" d="M 62.00914285714 26.29714285714 C 58.26514285714 29.46514285714 53.38514285714 31.04914285714 47.36914285714 31.04914285714 L 26.92114285714 31.04914285714 C 26.60114285714 31.04914285714 26.32914285714 30.93714285714 26.10514285714 30.71314285714 C 25.88114285714 30.48914285714 25.76914285714 30.21714285714 25.76914285714 29.89714285714 L 25.76914285714 -34.99885714286 C 25.76914285714 -35.31885714286 25.88114285714 -35.59085714286 26.10514285714 -35.81485714286 C 26.32914285714 -36.03885714286 26.60114285714 -36.15085714286 26.92114285714 -36.15085714286 L 46.21714285714 -36.15085714286 C 52.68114285714 -36.15085714286 57.72114285714 -34.63085714286 61.33714285714 -31.59085714286 C 64.95314285714 -28.55085714286 66.76114285714 -24.02285714286 66.76114285714 -18.00685714286 C 66.76114285714 -11.41485714286 64.16914285714 -6.74285714286 58.98514285714 -3.99085714286 C 58.66514285714 -3.79885714286 58.63314285714 -3.60685714286 58.88914285714 -3.41485714286 C 64.71314285714 -0.27885714286 67.62514285714 5.06514285714 67.62514285714 12.61714285714 C 67.62514285714 18.56914285714 65.75314285714 23.12914285714 62.00914285714 26.29714285714 Z M 36.90514285714 -26.07085714286 L 36.90514285714 -8.21485714286 C 36.90514285714 -7.89485714286 37.06514285714 -7.73485714286 37.38514285714 -7.73485714286 L 46.31314285714 -7.73485714286 C 49.32114285714 -7.73485714286 51.67314285714 -8.55085714286 53.36914285714 -10.18285714286 C 55.06514285714 -11.81485714286 55.91314285714 -14.10285714286 55.91314285714 -17.04685714286 C 55.91314285714 -20.05485714286 55.06514285714 -22.39085714286 53.36914285714 -24.05485714286 C 51.67314285714 -25.71885714286 49.32114285714 -26.55085714286 46.31314285714 -26.55085714286 L 37.38514285714 -26.55085714286 C 37.06514285714 -26.55085714286 36.90514285714 -26.39085714286 36.90514285714 -26.07085714286 Z M 53.94514285714 18.66514285714 C 55.64114285714 16.87314285714 56.48914285714 14.37714285714 56.48914285714 11.17714285714 C 56.48914285714 7.97714285714 55.62514285714 5.46514285714 53.89714285714 3.64114285714 C 52.16914285714 1.81714285714 49.83314285714 0.90514285714 46.88914285714 0.90514285714 L 37.38514285714 0.90514285714 C 37.06514285714 0.90514285714 36.90514285714 1.06514285714 36.90514285714 1.38514285714 L 36.90514285714 20.87314285714 C 36.90514285714 21.19314285714 37.06514285714 21.35314285714 37.38514285714 21.35314285714 L 46.98514285714 21.35314285714 C 49.92914285714 21.35314285714 52.24914285714 20.45714285714 53.94514285714 18.66514285714 Z M 85.38514285714 29.56114285714 C 82.18514285714 28.05714285714 79.70514285714 25.91314285714 77.94514285714 23.12914285714 C 76.18514285714 20.34514285714 75.30514285714 17.12914285714 75.30514285714 13.48114285714 L 75.30514285714 10.98514285714 C 75.30514285714 10.66514285714 75.41714285714 10.39314285714 75.64114285714 10.16914285714 C 75.86514285714 9.94514285714 76.13714285714 9.83314285714 76.45714285714 9.83314285714 L 85.09714285714 9.83314285714 C 85.41714285714 9.83314285714 85.68914285714 9.94514285714 85.91314285714 10.16914285714 C 86.13714285714 10.39314285714 86.24914285714 10.66514285714 86.24914285714 10.98514285714 L 86.24914285714 12.90514285714 C 86.24914285714 15.65714285714 87.20914285714 17.89714285714 89.12914285714 19.62514285714 C 91.04914285714 21.35314285714 93.64114285714 22.21714285714 96.90514285714 22.21714285714 C 99.91314285714 22.21714285714 102.21714285714 21.44914285714 103.81714285714 19.91314285714 C 105.41714285714 18.37714285714 106.21714285714 16.36114285714 106.21714285714 13.86514285714 C 106.21714285714 12.13714285714 105.76914285714 10.64914285714 104.87314285714 9.40114285714 C 103.97714285714 8.15314285714 102.71314285714 7.00114285714 101.08114285714 5.94514285714 C 99.44914285714 4.88914285714 96.93714285714 3.46514285714 93.54514285714 1.67314285714 C 89.64114285714 -0.37485714286 86.50514285714 -2.19885714286 84.13714285714 -3.79885714286 C 81.76914285714 -5.39885714286 79.76914285714 -7.44685714286 78.13714285714 -9.94285714286 C 76.50514285714 -12.43885714286 75.68914285714 -15.47885714286 75.68914285714 -19.06285714286 C 75.68914285714 -24.56685714286 77.52914285714 -28.91885714286 81.20914285714 -32.11885714286 C 84.88914285714 -35.31885714286 89.73714285714 -36.91885714286 95.75314285714 -36.91885714286 C 99.91314285714 -36.91885714286 103.59314285714 -36.13485714286 106.79314285714 -34.56685714286 C 109.99314285714 -32.99885714286 112.45714285714 -30.77485714286 114.18514285714 -27.89485714286 C 115.91314285714 -25.01485714286 116.77714285714 -21.71885714286 116.77714285714 -18.00685714286 L 116.77714285714 -15.99085714286 C 116.77714285714 -15.67085714286 116.66514285714 -15.39885714286 116.44114285714 -15.17485714286 C 116.21714285714 -14.95085714286 115.94514285714 -14.83885714286 115.62514285714 -14.83885714286 L 106.98514285714 -14.83885714286 C 106.66514285714 -14.83885714286 106.39314285714 -14.95085714286 106.16914285714 -15.17485714286 C 105.94514285714 -15.39885714286 105.83314285714 -15.67085714286 105.83314285714 -15.99085714286 L 105.83314285714 -17.81485714286 C 105.83314285714 -20.56685714286 104.90514285714 -22.83885714286 103.04914285714 -24.63085714286 C 101.19314285714 -26.42285714286 98.69714285714 -27.31885714286 95.56114285714 -27.31885714286 C 92.80914285714 -27.31885714286 90.63314285714 -26.59885714286 89.03314285714 -25.15885714286 C 87.43314285714 -23.71885714286 86.63314285714 -21.71885714286 86.63314285714 -19.15885714286 C 86.63314285714 -17.43085714286 87.04914285714 -15.95885714286 87.88114285714 -14.74285714286 C 88.71314285714 -13.52685714286 89.97714285714 -12.37485714286 91.67314285714 -11.28685714286 C 93.36914285714 -10.19885714286 95.94514285714 -8.79085714286 99.40114285714 -7.06285714286 C 104.00914285714 -4.43885714286 107.40114285714 -2.39085714286 109.57714285714 -0.91885714286 C 111.75314285714 0.55314285714 113.59314285714 2.45714285714 115.09714285714 4.79314285714 C 116.60114285714 7.12914285714 117.35314285714 9.99314285714 117.35314285714 13.38514285714 C 117.35314285714 19.01714285714 115.46514285714 23.49714285714 111.68914285714 26.82514285714 C 107.91314285714 30.15314285714 102.85714285714 31.81714285714 96.52114285714 31.81714285714 C 92.29714285714 31.81714285714 88.58514285714 31.06514285714 85.38514285714 29.56114285714 Z"/></svg>